<svg viewBox="0 0 24 24" xmlns="http://www.w3.org/2000/svg">
  <path
    d="M11.3333 2.93306H13.9999C14.1767 2.93306 14.3463 3.0033 14.4713 3.12833C14.5963 3.25335 14.6666 3.42292 14.6666 3.59973V14.2664C14.6666 14.4432 14.5963 14.6128 14.4713 14.7378C14.3463 14.8628 14.1767 14.9331 13.9999 14.9331H1.99992C1.82311 14.9331 1.65354 14.8628 1.52851 14.7378C1.40349 14.6128 1.33325 14.4432 1.33325 14.2664V3.59973C1.33325 3.42292 1.40349 3.25335 1.52851 3.12833C1.65354 3.0033 1.82311 2.93306 1.99992 2.93306H4.66659V1.59973H5.99992V2.93306H9.99992V1.59973H11.3333V2.93306ZM13.3333 6.93306V4.2664H11.3333V5.59973H9.99992V4.2664H5.99992V5.59973H4.66659V4.2664H2.66659V6.93306H13.3333ZM13.3333 8.2664H2.66659V13.5997H13.3333V8.2664ZM3.99992 9.59973H7.33325V12.2664H3.99992V9.59973Z"
  />
</svg>
  