<svg viewBox="0 0 18 15" xmlns="http://www.w3.org/2000/svg">
<path d="M9.34496 1.66667H16.5C16.721 1.66667 16.9329 1.75446 17.0892 1.91074C17.2455 2.06702 17.3333 2.27899 17.3333 2.5V14.1667C17.3333 14.3877 17.2455 14.5996 17.0892 14.7559C16.9329 14.9122 16.721 15 16.5 15H1.49996C1.27895 15 1.06698 14.9122 0.910704 14.7559C0.754423 14.5996 0.666626 14.3877 0.666626 14.1667V0.833333C0.666626 0.61232 0.754423 0.400358 0.910704 0.244078C1.06698 0.0877973 1.27895 0 1.49996 0H7.67829L9.34496 1.66667ZM8.99996 8.33333C9.55249 8.33333 10.0824 8.11384 10.4731 7.72314C10.8638 7.33244 11.0833 6.80253 11.0833 6.25C11.0833 5.69747 10.8638 5.16756 10.4731 4.77686C10.0824 4.38616 9.55249 4.16667 8.99996 4.16667C8.44743 4.16667 7.91752 4.38616 7.52682 4.77686C7.13612 5.16756 6.91663 5.69747 6.91663 6.25C6.91663 6.80253 7.13612 7.33244 7.52682 7.72314C7.91752 8.11384 8.44743 8.33333 8.99996 8.33333ZM5.66663 12.5H12.3333C12.3333 11.6159 11.9821 10.7681 11.357 10.143C10.7319 9.51786 9.88402 9.16667 8.99996 9.16667C8.1159 9.16667 7.26806 9.51786 6.64294 10.143C6.01782 10.7681 5.66663 11.6159 5.66663 12.5Z"/>
</svg>
