<svg viewBox="0 0 20 21" xmlns="http://www.w3.org/2000/svg">
<path d="M15.8333 18.8333H4.16663C3.50358 18.8333 2.8677 18.5699 2.39886 18.1011C1.93002 17.6323 1.66663 16.9964 1.66663 16.3333V3C1.66663 2.77899 1.75442 2.56702 1.9107 2.41074C2.06698 2.25446 2.27895 2.16667 2.49996 2.16667H14.1666C14.3876 2.16667 14.5996 2.25446 14.7559 2.41074C14.9122 2.56702 15 2.77899 15 3V13H18.3333V16.3333C18.3333 16.9964 18.0699 17.6323 17.6011 18.1011C17.1322 18.5699 16.4963 18.8333 15.8333 18.8333ZM15 14.6667V16.3333C15 16.5543 15.0878 16.7663 15.244 16.9226C15.4003 17.0789 15.6123 17.1667 15.8333 17.1667C16.0543 17.1667 16.2663 17.0789 16.4225 16.9226C16.5788 16.7663 16.6666 16.5543 16.6666 16.3333V14.6667H15ZM4.99996 6.33333V8H11.6666V6.33333H4.99996ZM4.99996 9.66667V11.3333H11.6666V9.66667H4.99996ZM4.99996 13V14.6667H9.16663V13H4.99996Z"/>
</svg>