<svg viewBox="0 0 20 21" xmlns="http://www.w3.org/2000/svg">
<path d="M10.345 4.66667H17.5C17.721 4.66667 17.9329 4.75446 18.0892 4.91074C18.2455 5.06702 18.3333 5.27899 18.3333 5.5V17.1667C18.3333 17.3877 18.2455 17.5996 18.0892 17.7559C17.9329 17.9122 17.721 18 17.5 18H2.49996C2.27895 18 2.06698 17.9122 1.9107 17.7559C1.75442 17.5996 1.66663 17.3877 1.66663 17.1667V3.83333C1.66663 3.61232 1.75442 3.40036 1.9107 3.24408C2.06698 3.0878 2.27895 3 2.49996 3H8.67829L10.345 4.66667ZM9.99996 11.3333C10.5525 11.3333 11.0824 11.1138 11.4731 10.7231C11.8638 10.3324 12.0833 9.80253 12.0833 9.25C12.0833 8.69747 11.8638 8.16756 11.4731 7.77686C11.0824 7.38616 10.5525 7.16667 9.99996 7.16667C9.44743 7.16667 8.91752 7.38616 8.52682 7.77686C8.13612 8.16756 7.91663 8.69747 7.91663 9.25C7.91663 9.80253 8.13612 10.3324 8.52682 10.7231C8.91752 11.1138 9.44743 11.3333 9.99996 11.3333ZM6.66663 15.5H13.3333C13.3333 14.6159 12.9821 13.7681 12.357 13.143C11.7319 12.5179 10.884 12.1667 9.99996 12.1667C9.1159 12.1667 8.26806 12.5179 7.64294 13.143C7.01782 13.7681 6.66663 14.6159 6.66663 15.5Z"/>
</svg>
