<svg viewBox="0 0 16 16" xmlns="http://www.w3.org/2000/svg">
  <path fill-rule="evenodd" clip-rule="evenodd"
    d="M13.4375 15C13.5938 15 13.7266 14.9453 13.8359 14.8359C13.9453 14.7266 14 14.5938 14 14.4375C14 14.2812 13.9453 14.1484 13.8359 14.0391C13.7266 13.9297 13.5938 13.875 13.4375 13.875H12V10.4531L9 8L12 5.54688V2.125H13.4375C13.5938 2.125 13.7266 2.07031 13.8359 1.96094C13.9453 1.85156 14 1.71875 14 1.5625C14 1.40625 13.9453 1.27344 13.8359 1.16406C13.7266 1.05469 13.5938 1 13.4375 1H2.5625C2.40625 1 2.27344 1.05469 2.16406 1.16406C2.05469 1.27344 2 1.40625 2 1.5625C2 1.71875 2.05469 1.85156 2.16406 1.96094C2.27344 2.07031 2.40625 2.125 2.5625 2.125H4V5.54688L7 8L4 10.4531V13.875H2.5625C2.40625 13.875 2.27344 13.9297 2.16406 14.0391C2.05469 14.1484 2 14.2812 2 14.4375C2 14.5938 2.05469 14.7266 2.16406 14.8359C2.27344 14.9453 2.40625 15 2.5625 15H13.4375ZM8.03125 7.21875L8 7.1875L7.96875 7.21875L5.125 4.92188V2.125H10.875V4.92188L8.03125 7.21875ZM5.125 11.0781V13.875H10.875V11.0781L8 8.75L5.125 11.0781ZM8.0199 6.32007C7.9028 6.32007 7.7857 6.28247 7.69631 6.20728L5.77398 4.5902C5.68817 4.51801 5.6399 4.42007 5.6399 4.31799V3.62507C5.6399 3.41245 5.84482 3.24007 6.09757 3.24007H9.94222C10.195 3.24007 10.3999 3.41245 10.3999 3.62507V4.31799C10.3999 4.42007 10.3516 4.51801 10.2658 4.5902L8.34338 6.20728C8.2541 6.28247 8.137 6.32007 8.0199 6.32007ZM7.69631 11.9712C7.7857 11.937 7.9028 11.9199 8.0199 11.9199C8.137 11.9199 8.2541 11.937 8.34338 11.9712L10.2658 12.7062C10.3516 12.7391 10.3999 12.7836 10.3999 12.83V13.1449C10.3999 13.2416 10.195 13.3199 9.94222 13.3199H6.09757C5.84482 13.3199 5.6399 13.2416 5.6399 13.1449V12.83C5.6399 12.7836 5.68817 12.7391 5.77398 12.7062L7.69631 11.9712Z"
  />
</svg>
  