<svg viewBox="0 0 18 18" fill="none" xmlns="http://www.w3.org/2000/svg">
<path d="M15.364 2.63609L13.95 4.05009C12.8049 2.90489 11.2982 2.19215 9.6865 2.03333C8.07482 1.87451 6.45794 2.27942 5.11134 3.17908C3.76474 4.07874 2.77174 5.41748 2.30154 6.9672C1.83134 8.51692 1.91302 10.1817 2.53268 11.678C3.15234 13.1742 4.27162 14.4093 5.69983 15.1728C7.12803 15.9363 8.77679 16.181 10.3652 15.8652C11.9536 15.5493 13.3833 14.6925 14.4108 13.4407C15.4382 12.1889 15.9999 10.6196 16 9.00009H18C18 11.0823 17.278 13.1001 15.957 14.7096C14.6361 16.3192 12.7979 17.4209 10.7557 17.8271C8.71355 18.2333 6.5937 17.9188 4.75737 16.9373C2.92104 15.9557 1.48187 14.3678 0.685061 12.4441C-0.111747 10.5204 -0.216886 8.37992 0.387558 6.38739C0.992002 4.39486 2.26863 2.67355 3.99992 1.51675C5.73121 0.359959 7.81004 -0.160747 9.88221 0.0433572C11.9544 0.247462 13.8917 1.16375 15.364 2.63609Z" />
</svg>
