<svg viewBox="0 0 16 16" xmlns="http://www.w3.org/2000/svg">
  <path
    d="M3.7625 1.64286C4.93751 0.547614 6.34999 0 8 0C9.65001 0 11.0625 0.547614 12.2375 1.64286C13.4125 2.7381 14 4.05952 14 5.60714C14 6.84524 13.5 8.33332 12.5 10.0714C11.5 11.8095 10.5 13.2381 9.5 14.3571L8 16C7.825 15.8333 7.60625 15.6012 7.34375 15.3036C7.08125 15.006 6.60625 14.4286 5.91875 13.5714C5.23125 12.7143 4.625 11.881 4.1 11.0714C3.575 10.2619 3.09375 9.34524 2.65625 8.32143C2.21875 7.29761 2 6.39286 2 5.60714C2 4.05952 2.58749 2.7381 3.7625 1.64286ZM6.30475 7.52374C6.77343 7.98935 7.33859 8.22215 8.00024 8.22215C8.6619 8.22215 9.22017 7.98207 9.67506 7.50191C10.1299 7.02175 10.3574 6.44702 10.3574 5.7777C10.3574 5.10839 10.1299 4.53366 9.67506 4.0535C9.22017 3.57334 8.6619 3.33326 8.00024 3.33326C7.33859 3.33326 6.78032 3.57334 6.32543 4.0535C5.87054 4.53366 5.6431 5.10839 5.6431 5.7777C5.6431 6.44702 5.86365 7.02902 6.30475 7.52374Z"
  />
</svg>
  