<svg width="24" height="25" viewBox="0 0 24 25" fill="none" xmlns="http://www.w3.org/2000/svg">
<path d="M3 3.28125H21C21.2652 3.28125 21.5196 3.38661 21.7071 3.57414C21.8946 3.76168 22 4.01603 22 4.28125V20.2812C22 20.5465 21.8946 20.8008 21.7071 20.9884C21.5196 21.1759 21.2652 21.2812 21 21.2812H3C2.73478 21.2812 2.48043 21.1759 2.29289 20.9884C2.10536 20.8008 2 20.5465 2 20.2812V4.28125C2 4.01603 2.10536 3.76168 2.29289 3.57414C2.48043 3.38661 2.73478 3.28125 3 3.28125ZM20 7.51925L12.072 14.6193L4 7.49725V19.2812H20V7.51925ZM4.511 5.28125L12.061 11.9432L19.502 5.28125H4.511Z" fill="white"/>
</svg>
