<svg viewBox="0 0 24 24" xmlns="http://www.w3.org/2000/svg">
  <path
    d="M16 4.8344V8.26297H0V4.8344C0 4.04869 0.642857 3.40583 1.42857 3.40583H4.57143V1.97726C4.57143 1.50405 4.95536 1.12012 5.42857 1.12012H10.5714C11.0446 1.12012 11.4286 1.50405 11.4286 1.97726V3.40583H14.5714C15.3571 3.40583 16 4.04869 16 4.8344ZM5.71464 3.40586H10.2861V2.263H5.71464V3.40586ZM14.5714 14.8344C15.3571 14.8344 16 14.1915 16 13.4058V9.12012H10V10.5487C10 10.8612 9.74107 11.1201 9.42857 11.1201H6.57143C6.25893 11.1201 6 10.8612 6 10.5487V9.12012H0V13.4058C0 14.1915 0.642857 14.8344 1.42857 14.8344H14.5714ZM9.14262 9.12012V10.263H6.85691V9.12012H9.14262Z"
  />
</svg>
  