<svg viewBox="0 0 24 24"
    xmlns="http://www.w3.org/2000/svg">
    <path d="M17.0007 0.208008L18.3195 2.68083L20.7923 3.99968L18.3195 5.31852L17.0007 7.79134L15.6818 5.31852L13.209 3.99968L15.6818 2.68083L17.0007 0.208008ZM10.6673 8.33301L15.6673 10.9997L10.6673 13.6663L8.00065 18.6663L5.33398 13.6663L0.333984 10.9997L5.33398 8.33301L8.00065 3.33301L10.6673 8.33301ZM11.4173 10.9997L9.18905 9.8113L8.00065 7.58301L6.81224 9.8113L4.58398 10.9997L6.81224 12.1881L8.00065 14.4163L9.18905 12.1881L11.4173 10.9997ZM19.6673 15.333L18.0007 12.208L16.334 15.333L13.209 16.9997L16.334 18.6663L18.0007 21.7913L19.6673 18.6663L22.7923 16.9997L19.6673 15.333Z"/>
</svg>
