<svg width="32" height="32" viewBox="0 0 32 32" xmlns="http://www.w3.org/2000/svg"><path d="M27 17.09a1 1 0 1 1 2 0v7.621A4.289 4.289 0 0 1 24.711 29H7.29A4.289 4.289 0 0 1 3 24.711V7.29A4.289 4.289 0 0 1 7.289 3h7.62a1 1 0 1 1 0 2H7.29A2.289 2.289 0 0 0 5 7.289V24.71A2.289 2.289 0 0 0 7.289 27H24.71A2.289 2.289 0 0 0 27 24.711v-7.62zm-9.543-7.547c2.587-2.59 3.649-3.655 4.94-4.953a2 2 0 0 1 1.691-.571c.275.038.47.08.69.172 1.368.554 2.388 1.556 2.986 2.924.089.203.134.366.19.624a2 2 0 0 1-.54 1.841c-1.55 1.548-3.038 3.037-5.71 5.713l-3.633 3.633-3.91 3.91a2 2 0 0 1-1.004.543l-1.32.278-.174.037-1.251.263a2 2 0 0 1-2.369-2.37 2026.226 2026.226 0 0 1 .586-2.757 2 2 0 0 1 .533-.987c.575-.58 5.655-5.66 6.523-6.526l1.772-1.774zm1.415 1.413l-1.771 1.775c-.59.586-5.835 5.83-6.517 6.519A573.91 573.91 0 0 0 10 22l1.25-.263.175-.037 1.32-.278c.719-.72 6.097-6.093 7.543-7.542C22.796 11.368 24.364 9.8 26 8.165a1.448 1.448 0 0 0-.068-.249c-.39-.892-1.024-1.514-1.905-1.871A.915.915 0 0 0 23.815 6a3067.05 3067.05 0 0 1-4.943 4.956z"/></svg>