<svg width="32" height="32" viewBox="0 0 32 32" xmlns="http://www.w3.org/2000/svg"><path d="M25.74 20.081a.438.438 0 0 0 .115.488 2.61 2.61 0 0 1 .282 3.57 12.997 12.997 0 0 1-2.116 2.09 2.616 2.616 0 0 1-3.532-.305c-.093-.103-.366-.165-.488-.116a.447.447 0 0 0-.264.428 2.612 2.612 0 0 1-2.322 2.685 12.927 12.927 0 0 1-2.923-.008 2.61 2.61 0 0 1-2.31-2.742.44.44 0 0 0-.265-.43c-.119-.05-.392.012-.487.116a2.612 2.612 0 0 1-3.573.28 12.898 12.898 0 0 1-2.053-2.077 2.61 2.61 0 0 1 .283-3.544.447.447 0 0 0 .117-.485.43.43 0 0 0-.414-.268c-1.272 0-2.55-.903-2.709-2.32a13.03 13.03 0 0 1 .007-2.963c.163-1.346 1.3-2.343 2.621-2.3.293 0 .491-.123.549-.26a.44.44 0 0 0-.116-.492 2.611 2.611 0 0 1-.28-3.566c.616-.77 1.324-1.47 2.11-2.086a2.614 2.614 0 0 1 3.54.302c.09.1.367.163.484.115a.45.45 0 0 0 .266-.429 2.612 2.612 0 0 1 2.323-2.685 12.977 12.977 0 0 1 2.926.008 2.61 2.61 0 0 1 2.306 2.743.442.442 0 0 0 .259.428c.123.052.398-.01.489-.111a2.612 2.612 0 0 1 3.57-.288 12.88 12.88 0 0 1 2.063 2.082 2.61 2.61 0 0 1-.285 3.542.45.45 0 0 0-.117.488c.066.16.226.266.427.266 1.274 0 2.537.916 2.695 2.318.11.986.109 1.98-.006 2.96a2.612 2.612 0 0 1-2.733 2.302.477.477 0 0 0-.44.264zm1.19-5.302c-.034-.31-.395-.542-.707-.542a2.443 2.443 0 0 1-2.277-1.507 2.45 2.45 0 0 1 .615-2.72.611.611 0 0 0 .067-.83 10.883 10.883 0 0 0-1.743-1.76.613.613 0 0 0-.836.068c-.655.726-1.833.996-2.743.616a2.443 2.443 0 0 1-1.486-2.388.61.61 0 0 0-.54-.643 10.975 10.975 0 0 0-2.475-.006.612.612 0 0 0-.544.63 2.448 2.448 0 0 1-1.507 2.346c-.899.368-2.068.1-2.723-.62a.613.613 0 0 0-.83-.07 11.018 11.018 0 0 0-1.78 1.76.612.612 0 0 0 .066.836 2.438 2.438 0 0 1 .615 2.744c-.38.905-1.318 1.487-2.393 1.487a.598.598 0 0 0-.635.54 11.016 11.016 0 0 0-.005 2.502c.035.31.406.54.721.54.958-.024 1.878.57 2.264 1.508.384.938.137 2.03-.615 2.72a.61.61 0 0 0-.067.829 10.85 10.85 0 0 0 1.74 1.76.612.612 0 0 0 .837-.066c.658-.728 1.836-.997 2.742-.617a2.44 2.44 0 0 1 1.489 2.388.61.61 0 0 0 .54.642 10.898 10.898 0 0 0 2.474.007.612.612 0 0 0 .544-.63 2.445 2.445 0 0 1 1.506-2.345c.905-.37 2.07-.1 2.724.62a.614.614 0 0 0 .83.069 10.96 10.96 0 0 0 1.78-1.76.611.611 0 0 0-.066-.836 2.437 2.437 0 0 1-.616-2.744 2.462 2.462 0 0 1 2.25-1.491l.136.004a.612.612 0 0 0 .644-.54c.097-.827.098-1.668.004-2.501zm-13.43 5.55a5 5 0 1 1 5-8.659 5 5 0 0 1-5 8.66zm1-1.732a3 3 0 1 0 3-5.194 3 3 0 0 0-3 5.194z"/></svg>