<?xml version="1.0" standalone="no"?>
<!DOCTYPE svg PUBLIC "-//W3C//DTD SVG 20010904//EN"
 "http://www.w3.org/TR/2001/REC-SVG-20010904/DTD/svg10.dtd">
<svg version="1.0" xmlns="http://www.w3.org/2000/svg"
 width="48.000000pt" height="48.000000pt" viewBox="0 0 48.000000 48.000000"
 preserveAspectRatio="xMidYMid meet">
<metadata>
Created by potrace 1.15, written by Peter Selinger 2001-2017
</metadata>
<g transform="translate(0.000000,48.000000) scale(0.100000,-0.100000)"
fill="#000000" stroke="none">
<path d="M155 350 c-40 -71 -55 -90 -72 -90 -16 0 -23 -6 -23 -20 0 -17 7 -20
40 -20 36 0 41 3 61 41 11 23 24 37 28 33 4 -5 18 -61 31 -124 13 -63 26 -118
29 -122 4 -4 29 33 56 82 47 84 52 90 83 90 25 0 32 4 32 20 0 17 -7 20 -50
20 -48 0 -50 -1 -71 -41 -11 -23 -24 -37 -28 -33 -4 5 -18 61 -31 124 -13 63
-26 118 -29 122 -4 4 -29 -33 -56 -82z"/>
</g>
</svg>
