<svg width="32" height="32" viewBox="0 0 32 32" xmlns="http://www.w3.org/2000/svg"><path d="M16 2c-3.802 0-4.279.016-5.772.084-1.49.068-2.508.305-3.399.651A6.862 6.862 0 0 0 4.35 4.35a6.862 6.862 0 0 0-1.614 2.48c-.346.89-.583 1.908-.65 3.398C2.015 11.72 2 12.198 2 16c0 3.802.016 4.279.084 5.772.068 1.49.305 2.508.651 3.399.358.92.836 1.7 1.615 2.48a6.863 6.863 0 0 0 2.48 1.614c.89.346 1.908.583 3.398.65 1.493.069 1.97.085 5.772.085 3.802 0 4.279-.016 5.772-.084 1.49-.068 2.508-.305 3.399-.651a6.863 6.863 0 0 0 2.48-1.615 6.863 6.863 0 0 0 1.614-2.48c.346-.89.583-1.908.65-3.398.069-1.493.085-1.97.085-5.772 0-3.802-.016-4.279-.084-5.772-.068-1.49-.305-2.508-.651-3.399a6.863 6.863 0 0 0-1.615-2.48 6.862 6.862 0 0 0-2.48-1.614c-.89-.346-1.908-.583-3.398-.65C20.28 2.015 19.802 2 16 2zm0 2.523c3.738 0 4.181.014 5.657.081 1.365.062 2.106.29 2.6.482.653.254 1.12.558 1.61 1.047.49.49.793.957 1.047 1.61.192.494.42 1.235.482 2.6.067 1.476.081 1.919.081 5.657s-.014 4.181-.081 5.657c-.062 1.365-.29 2.106-.482 2.6a4.337 4.337 0 0 1-1.047 1.61c-.49.49-.957.793-1.61 1.047-.494.192-1.235.42-2.6.482-1.476.067-1.919.081-5.657.081s-4.181-.014-5.657-.081c-1.365-.062-2.106-.29-2.6-.482a4.337 4.337 0 0 1-1.61-1.047 4.338 4.338 0 0 1-1.047-1.61c-.192-.494-.42-1.235-.482-2.6-.067-1.476-.081-1.919-.081-5.657s.014-4.181.081-5.657c.062-1.365.29-2.106.482-2.6a4.337 4.337 0 0 1 1.047-1.61c.49-.49.957-.793 1.61-1.047.494-.192 1.235-.42 2.6-.482 1.476-.067 1.919-.081 5.657-.081zm0 16.02a4.544 4.544 0 1 1 0-9.087 4.544 4.544 0 0 1 0 9.088zM16 9a7 7 0 1 0 0 14 7 7 0 0 0 0-14zm9-.5a1.5 1.5 0 1 0-3 0 1.5 1.5 0 0 0 3 0z" fill="#0A0B09" fill-rule="evenodd"/></svg>