<svg width="32" height="32" viewBox="0 0 32 32" xmlns="http://www.w3.org/2000/svg"><path d="M22.287 28H27a1 1 0 0 0 1-1V5a1 1 0 0 0-1-1H5a1 1 0 0 0-1 1v22a1 1 0 0 0 1 1h11.23v-7.387h-2.674V14.42h2.685c.012-.288.019-.542.03-1.08.032-1.396.065-2.035.174-2.82.325-2.339 1.691-3.754 3.896-4.075a1.61 1.61 0 0 0 .164-.04l.157-.042.117-.029h4.888v6.233h-2.638c-.936.004-.728-.232-.73.959l-.001.857h3.466l-.103 1.094-.197 2.09-.198 2.1-.085.906h-2.894V28zm-4.056-9.387V30H5a3 3 0 0 1-3-3V5a3 3 0 0 1 3-3h22a3 3 0 0 1 3 3v22a3 3 0 0 1-3 3h-6.713V18.572h3.073a66972.762 66972.762 0 0 1 .206-2.19h-3.268v-2.857c.006-2.243.628-2.95 2.718-2.958l.65-.001V8.333H21.03c-.179.05-.268.07-.4.09-1.313.19-2 .902-2.204 2.37-.094.685-.125 1.272-.154 2.558-.014.614-.02.874-.035 1.201a9.543 9.543 0 0 0-.003.548c.002.151.002.224.002.32v1h-2.68v2.193h2.675z"/></svg>