<?xml version="1.0" encoding="utf-8"?>
<!-- Generator: Adobe Illustrator 20.1.0, SVG Export Plug-In . SVG Version: 6.00 Build 0)  -->
<svg version="1.1" id="Layer_1" xmlns="http://www.w3.org/2000/svg" xmlns:xlink="http://www.w3.org/1999/xlink" x="0px" y="0px"
	 viewBox="0 0 20 20" style="enable-background:new 0 0 20 20;" xml:space="preserve">
<style type="text/css">
	.st0{fill:#00A5AF;}
	.st1{fill:#FFFFFF;}
</style>
<title>verified</title>
<desc>Created with Sketch.</desc>
<g id="Icon">
	<g id="verified">
		<path id="Shape" class="st0" d="M18.6,9l-0.3-0.3c-0.4-0.3-0.5-0.9-0.3-1.3l0.2-0.4c0.3-0.7-0.1-1.4-0.8-1.6l-0.5-0.1
			c-0.5-0.1-0.8-0.6-0.8-1.1V3.7c0-0.7-0.7-1.2-1.4-1.1l-0.5,0.1c-0.5,0.1-1-0.1-1.2-0.6l-0.2-0.4c-0.3-0.6-1.1-0.8-1.7-0.4
			l-0.4,0.3c-0.4,0.3-1,0.3-1.4,0L9,1.2C8.4,0.8,7.6,1,7.3,1.6L7.1,2C6.8,2.5,6.3,2.7,5.8,2.6L5.3,2.5C4.6,2.4,4,2.9,3.9,3.6l0,0.5
			c0,0.5-0.4,0.9-0.8,1.1L2.6,5.3C2,5.5,1.6,6.2,1.9,6.9l0.2,0.4c0.2,0.5,0.1,1-0.3,1.3L1.4,8.9c-0.5,0.5-0.5,1.3,0,1.8L1.7,11
			c0.4,0.3,0.5,0.9,0.3,1.3l-0.2,0.4c-0.3,0.7,0.1,1.4,0.8,1.6l0.5,0.1c0.5,0.1,0.8,0.6,0.8,1.1l0,0.5c0,0.7,0.7,1.2,1.4,1.1L5.8,17
			c0.5-0.1,1,0.1,1.2,0.6l0.2,0.4c0.3,0.6,1.1,0.8,1.7,0.4l0.4-0.3c0.4-0.3,1-0.3,1.4,0l0.4,0.3c0.6,0.4,1.4,0.2,1.7-0.4l0.2-0.4
			c0.3-0.5,0.7-0.7,1.2-0.6l0.5,0.1c0.7,0.1,1.3-0.4,1.4-1.1l0-0.5c0-0.5,0.4-0.9,0.8-1.1l0.5-0.1c0.7-0.2,1-0.9,0.8-1.6L18,12.3
			c-0.2-0.5-0.1-1,0.3-1.3l0.3-0.3C19.1,10.3,19.1,9.4,18.6,9L18.6,9z"/>
		<path id="Shape_1_" class="st1" d="M4.3,9.5L4.3,9.5C4.8,9,5.5,9,5.9,9.5l2.4,2.4l5.5-5.5c0.4-0.4,1.1-0.4,1.6,0l0,0
			c0.4,0.4,0.4,1.1,0,1.6L9,14.2c-0.4,0.4-1.1,0.4-1.6,0L4.3,11C3.9,10.6,3.9,9.9,4.3,9.5L4.3,9.5z"/>
	</g>
</g>
</svg>
