<svg width="32" height="32" viewBox="0 0 32 32" xmlns="http://www.w3.org/2000/svg"><path d="M24 7V5a1 1 0 0 1 2 0v2h2a1 1 0 0 1 0 2h-2v2a1 1 0 0 1-2 0V9h-2a1 1 0 0 1 0-2h2zm-3.634-4.306a1 1 0 0 1-.624 1.9A11.988 11.988 0 0 0 16 4C9.373 4 4 9.373 4 16s5.373 12 12 12 12-5.373 12-12c0-.612-.046-1.219-.136-1.815a1 1 0 1 1 1.977-.3c.106.696.159 1.402.159 2.115 0 7.732-6.268 14-14 14S2 23.732 2 16 8.268 2 16 2c1.5 0 2.968.236 4.366.694zM9 19.012h2.006v-5.569h-1.73v-1.38a7.29 7.29 0 0 0 1.28-.365 6.908 6.908 0 0 0 1.017-.516h1.57v7.83h1.73v1.806H9v-1.806zm7.267-.652c0-.587.153-1.068.458-1.442a3.81 3.81 0 0 1 1.112-.926v-.06a3.993 3.993 0 0 1-.886-.964c-.233-.359-.35-.797-.35-1.312 0-.405.073-.772.219-1.1.145-.33.349-.61.61-.843a2.66 2.66 0 0 1 .938-.53A3.717 3.717 0 0 1 19.552 11c.417 0 .8.063 1.149.19.348.126.644.303.886.53.242.228.431.507.567.835.136.33.204.69.204 1.085 0 .466-.122.878-.364 1.237-.242.36-.523.65-.843.873v.06a3.83 3.83 0 0 1 1.134.971c.31.395.465.911.465 1.548 0 .385-.078.739-.233 1.063a2.48 2.48 0 0 1-.66.842 3.22 3.22 0 0 1-1.033.561c-.402.137-.85.205-1.344.205-.465 0-.894-.063-1.287-.19a3.098 3.098 0 0 1-1.017-.538 2.4 2.4 0 0 1-.908-1.912zm1.832-.258c0 .425.14.756.421.994.281.237.616.356 1.003.356.359 0 .654-.098.887-.296.232-.197.349-.498.349-.903 0-.212-.046-.394-.138-.546a1.457 1.457 0 0 0-.4-.417 3.799 3.799 0 0 0-.618-.357 65.166 65.166 0 0 0-.792-.364 2.763 2.763 0 0 0-.509.698 1.796 1.796 0 0 0-.203.835zm1.962-2.899c.378-.455.567-.925.567-1.41 0-.375-.1-.676-.298-.904-.199-.227-.472-.341-.821-.341-.281 0-.524.09-.727.273-.204.182-.305.46-.305.835 0 .394.145.703.436.925.29.223.673.43 1.148.622z"/></svg>