<?xml version="1.0" encoding="UTF-8"?>
<svg width="19px" height="18px" viewBox="0 0 19 18" version="1.1" xmlns="http://www.w3.org/2000/svg" xmlns:xlink="http://www.w3.org/1999/xlink">
    <!-- Generator: Sketch 50.2 (55047) - http://www.bohemiancoding.com/sketch -->
    <title>clock-circular-outline</title>
    <desc>Created with Sketch.</desc>
    <defs></defs>
    <g id="Special-Jobs" stroke="none" stroke-width="1" fill="none" fill-rule="evenodd">
        <g id="Home-Page" transform="translate(-492.000000, -1537.000000)" fill="#000000" fill-rule="nonzero">
            <g id="clock-circular-outline" transform="translate(492.000000, 1537.000000)">
                <path d="M9.02134342,0 C4.04697689,0 0,4.00279592 0,8.92285714 C0,13.8429184 4.04697689,17.8457143 9.02134342,17.8457143 C13.99571,17.8457143 18.0426868,13.8429184 18.0426868,8.92285714 C18.0426868,4.00279592 13.99571,0 9.02134342,0 Z M9.02134342,15.9470816 C5.10547128,15.9470816 1.91940316,12.7961633 1.91940316,8.92285714 C1.91940316,5.04955102 5.10547128,1.89863265 9.02134342,1.89863265 C12.9372156,1.89863265 16.1232837,5.04955102 16.1232837,8.92285714 C16.1232837,12.7961633 12.9372156,15.9470816 9.02134342,15.9470816 Z" id="Shape"></path>
                <path d="M13.7229155,8.64734694 L9.66869631,8.64734694 L9.66869631,3.82591837 C9.66869631,3.42018367 9.33610623,3.09122449 8.92589323,3.09122449 C8.51568023,3.09122449 8.18309015,3.42018367 8.18309015,3.82591837 L8.18309015,9.38204082 C8.18309015,9.78777551 8.51568023,10.1167347 8.92589323,10.1167347 L13.7229155,10.1167347 C14.1331285,10.1167347 14.4657186,9.78777551 14.4657186,9.38204082 C14.4657186,8.97630612 14.1331285,8.64734694 13.7229155,8.64734694 Z" id="Shape"></path>
            </g>
        </g>
    </g>
</svg>