<svg width="32" height="32" viewBox="0 0 32 32" xmlns="http://www.w3.org/2000/svg"><path d="M19.482 21.135A1 1 0 0 1 20 20.99h3.08c2.064 0 3.92-1.864 3.92-3.942V9.942C27 7.865 25.144 6 23.08 6H8.92C6.856 6 5 7.865 5 9.942v7.106c0 2.078 1.856 3.942 3.92 3.942H13a1 1 0 0 1 .97 1.246l-.672 2.644 6.184-3.745zM8.92 22.99C5.75 22.99 3 20.228 3 17.048V9.942C3 6.762 5.75 4 8.92 4h14.16C26.25 4 29 6.762 29 9.942v7.106c0 3.18-2.75 5.942-5.92 5.942h-2.8l-8.034 4.865c-.765.464-1.707-.234-1.487-1.101l.955-3.764H8.92z"/></svg>