<svg width="32" height="32" viewBox="0 0 32 32" xmlns="http://www.w3.org/2000/svg"><path d="M23.404 19.836c2.462-2.618 3.796-5.13 3.796-7.347C27.2 8.512 24.8 6 22.333 6c-2.311 0-3.886 1.146-5.063 3.254a1.36 1.36 0 0 1-1.17.673c-.485 0-.925-.26-1.183-.695C13.753 7.146 12.178 6 9.867 6 7.4 6 5 8.512 5 12.49c0 2.216 1.334 4.728 3.796 7.346 1.921 2.042 4.438 4.062 7.304 5.967 2.866-1.905 5.383-3.925 7.304-5.967zM22.334 4c3.592 0 6.866 3.427 6.866 8.49 0 2.822-1.561 5.762-4.34 8.716-2.165 2.303-5 4.543-8.215 6.633a1 1 0 0 1-1.09 0c-3.215-2.09-6.05-4.33-8.216-6.633C4.561 18.252 3 15.312 3 12.489 3 7.427 6.274 4 9.867 4c2.755 0 4.782 1.239 6.234 3.347C17.56 5.233 19.584 4 22.333 4z"/></svg>