<svg width="32" height="32" viewBox="0 0 32 32" xmlns="http://www.w3.org/2000/svg"><path d="M14.27 17.282a1 1 0 1 1-1.393 1.436A6.098 6.098 0 0 1 11 14.325a6.12 6.12 0 0 1 1.88-4.406l1.596-1.546.628-.608.477-.462.45-.436.05-.05A6.462 6.462 0 0 1 20.603 5c1.703 0 3.313.646 4.52 1.816a6.087 6.087 0 0 1 0 8.793l-1.29 1.252a1 1 0 1 1-1.392-1.435l1.29-1.252a4.087 4.087 0 0 0 0-5.921A4.466 4.466 0 0 0 20.603 7a4.462 4.462 0 0 0-3.128 1.253l-.052.05-.45.436-.477.462-.628.609-1.597 1.546A4.116 4.116 0 0 0 13 14.325a4.097 4.097 0 0 0 1.27 2.957zm2.742-2.363a1 1 0 1 1 1.106-1.666l.845.56.122.097c1.19 1.09 1.912 2.91 1.915 4.592-.003 1.566-.62 2.747-1.917 3.938l-1.598 1.463-.629.576-.477.437-.45.413-.052.047c-1.204 1.104-2.799 1.71-4.481 1.71s-3.276-.606-4.48-1.71c-2.554-2.338-2.554-6.185-.002-8.524l1.293-1.185a1 1 0 0 1 1.352 1.474l-1.293 1.185c-1.688 1.547-1.688 4.03 0 5.576.832.762 1.943 1.184 3.13 1.184 1.187 0 2.298-.422 3.13-1.184l.051-.048.45-.413.478-.437.629-.576 1.599-1.464c.911-.837 1.265-1.514 1.267-2.462-.002-1.117-.487-2.366-1.214-3.069l-.774-.514z"/></svg>