<?xml version="1.0" encoding="UTF-8"?>
<svg width="19px" height="18px" viewBox="0 0 19 18" version="1.1" xmlns="http://www.w3.org/2000/svg" xmlns:xlink="http://www.w3.org/1999/xlink">
    <!-- Generator: Sketch 50.2 (55047) - http://www.bohemiancoding.com/sketch -->
    <title>man</title>
    <desc>Created with Sketch.</desc>
    <defs></defs>
    <g id="Special-Jobs" stroke="none" stroke-width="1" fill="none" fill-rule="evenodd">
        <g id="Home-Page" transform="translate(-287.000000, -1497.000000)" fill="#000000" fill-rule="nonzero">
            <g id="man" transform="translate(287.000000, 1497.000000)">
                <ellipse id="Oval" cx="3.53863135" cy="2.5" rx="2.52759382" ry="2.5"></ellipse>
                <path d="M7.07435184,11.9454545 L6.53647409,6.98290909 C6.47635357,6.42218182 5.97146655,6 5.36285227,6 L1.71326772,6 C1.10461659,6 0.599766424,6.42218182 0.539609045,6.98181818 L0.00291085511,11.9454545 C-0.0136029353,12.0992727 0.0406566619,12.2509091 0.152714526,12.3665455 C0.263629694,12.48 0.422832955,12.5454545 0.589150416,12.5454545 L1.2343678,12.5454545 L1.71798595,17.0181818 C1.77814333,17.5767273 2.28417305,18 2.89282418,18 L4.18443851,18 C4.79308964,18 5.29793981,17.5767273 5.35809719,17.0181818 L5.84171534,12.5454545 L6.48693272,12.5454545 C6.65325018,12.5454545 6.8124903,12.48 6.92454817,12.3665455 C7.03660603,12.252 7.09086563,12.0992727 7.07435184,11.9454545 Z" id="Shape"></path>
                <path d="M14.6676831,8.96875 C14.8689919,9.775 15.5663831,10.375 16.4012754,10.375 C17.3925416,10.375 18.1986755,9.5340625 18.1986755,8.5 C18.1986755,7.4659375 17.3925416,6.625 16.4012754,6.625 C15.5663831,6.625 14.8689919,7.2240625 14.6676831,8.03125 L12.8064753,8.03125 L12.8064753,3.34375 L14.6676831,3.34375 C14.8689919,4.15 15.5663831,4.75 16.4012754,4.75 C17.3925416,4.75 18.1986755,3.9090625 18.1986755,2.875 C18.1986755,1.8409375 17.3925416,1 16.4012754,1 C15.5663831,1 14.8689919,1.6 14.6676831,2.40625 L12.3571253,2.40625 C12.1090841,2.40625 11.9077753,2.61625 11.9077753,2.875 L11.9077753,8.03125 L10.5597253,8.03125 C10.3116841,8.03125 10.1103753,8.2403125 10.1103753,8.5 C10.1103753,8.7596875 10.3116841,8.96875 10.5597253,8.96875 L11.9077753,8.96875 L11.9077753,14.125 C11.9077753,14.38375 12.1090841,14.59375 12.3571253,14.59375 L14.6676831,14.59375 C14.8689919,15.4 15.5663831,16 16.4012754,16 C17.3925416,16 18.1986755,15.1590625 18.1986755,14.125 C18.1986755,13.0909375 17.3925416,12.25 16.4012754,12.25 C15.5663831,12.25 14.8689919,12.85 14.6676831,13.65625 L12.8064753,13.65625 L12.8064753,8.96875 L14.6676831,8.96875 Z" id="Shape"></path>
            </g>
        </g>
    </g>
</svg>