<svg width="32" height="32" viewBox="0 0 32 32" xmlns="http://www.w3.org/2000/svg"><path d="M12 8a1 1 0 0 1 0-2h14a1 1 0 0 1 0 2H12zm0 18a1 1 0 0 1 0-2h14a1 1 0 0 1 0 2H12zm0-9a1 1 0 0 1 0-2h14a1 1 0 0 1 0 2H12zM7.82 5v5.005H6.437v-3.28c-.224.17-.44.308-.65.413A5.032 5.032 0 0 1 5 7.441V6.319c.466-.15.827-.33 1.084-.54.258-.21.46-.47.605-.779H7.82zm1.357 13H5c.048-.405.193-.785.436-1.142.242-.356.698-.777 1.365-1.262.408-.298.67-.524.783-.678.114-.154.17-.3.17-.44a.508.508 0 0 0-.168-.383.596.596 0 0 0-.426-.16.6.6 0 0 0-.436.165c-.112.11-.188.303-.227.58l-1.394-.11c.054-.385.154-.685.3-.901a1.39 1.39 0 0 1 .617-.496c.266-.115.633-.173 1.103-.173.49 0 .87.055 1.143.164.272.11.486.278.642.505.157.227.235.481.235.763 0 .3-.09.586-.269.858-.179.273-.504.573-.976.9-.28.19-.467.322-.562.398a5.116 5.116 0 0 0-.333.299h2.174V18zM6.39 24.48l-1.316-.227c.11-.404.32-.714.63-.93.312-.215.752-.323 1.322-.323.654 0 1.127.118 1.418.353.292.235.438.53.438.887 0 .209-.06.398-.178.567-.118.17-.297.318-.537.446.194.046.342.1.445.161.166.1.295.23.388.391.092.162.138.355.138.579a1.569 1.569 0 0 1-.889 1.407c-.287.14-.664.209-1.13.209-.457 0-.816-.052-1.08-.155a1.61 1.61 0 0 1-.649-.454c-.17-.198-.3-.449-.391-.75l1.391-.178c.055.27.14.458.255.562a.628.628 0 0 0 .439.157.614.614 0 0 0 .467-.198c.124-.132.186-.308.186-.528 0-.224-.06-.398-.18-.52-.12-.124-.282-.185-.487-.185-.11 0-.26.026-.45.079l.07-.96c.078.011.139.017.182.017a.648.648 0 0 0 .456-.169.525.525 0 0 0 .183-.399.468.468 0 0 0-.137-.353.519.519 0 0 0-.375-.132.563.563 0 0 0-.4.144c-.103.096-.172.263-.209.503z"/></svg>