<?xml version="1.0" encoding="UTF-8"?>
<svg width="32" height="32" viewBox="0 0 32 32" xmlns="http://www.w3.org/2000/svg"><title>map-pin</title><g id="map-pin" fill="none" fill-rule="evenodd"><path d="M16.755 27.613C22.283 21.133 25 16.233 25 13.198c0-5.06-4.03-9.162-9-9.162s-9 4.102-9 9.162c0 3.036 2.717 7.936 8.245 14.415a.988.988 0 0 0 1.51 0zm1.51 1.335a2.963 2.963 0 0 1-4.53 0C7.912 22.122 5 16.872 5 13.198 5 7.013 9.925 2 16 2s11 5.013 11 11.198c0 3.674-2.912 8.924-8.735 15.75zM16 17.27c-2.21 0-4-1.823-4-4.072 0-2.25 1.79-4.072 4-4.072s4 1.823 4 4.072-1.79 4.072-4 4.072zm0 2.036c3.314 0 6-2.735 6-6.108 0-3.373-2.686-6.108-6-6.108s-6 2.735-6 6.108c0 3.373 2.686 6.108 6 6.108z" id="Combined-Shape" fill="#000" fill-rule="nonzero"/></g></svg>