<svg width="32" height="32" viewBox="0 0 32 32" xmlns="http://www.w3.org/2000/svg"><path d="M17 7.067V10a1 1 0 0 1-.905.996c-5.578.53-8.825 3.54-10.25 8.208a17.345 17.345 0 0 0-.724 4.507c.362-.636.744-1.237 1.174-1.832 2.51-3.478 5.733-5.39 9.83-4.871A1 1 0 0 1 17 18v3.066l9.333-6.61L17 7.067zM4.814 26.051l.146.061a1.224 1.224 0 0 0-.146-.061zM15 9.113V5a1 1 0 0 1 1.62-.784l12 9.5a1 1 0 0 1-.042 1.6l-12 8.5A1 1 0 0 1 15 23v-4.073c-2.85-.057-5.154 1.449-7.084 4.123-.67.929-1.22 1.888-1.78 3.023-.1.2-.435.895-.502 1.03a3.532 3.532 0 0 1-.214.378 1.247 1.247 0 0 1-.232.267c-.29.248-.694.375-1.148.14-1.207-.755-1.228-5.596-.107-9.268C5.502 13.48 9.1 9.965 15 9.113z"/></svg>