<svg xmlns="http://www.w3.org/2000/svg" width="59" height="50" viewBox="0 0 59 50">
    <g fill="#00AEEF" fill-rule="nonzero">
        <path d="M20.404.068H6.8c-1.89 0-3.495.661-4.818 1.983C.661 3.374 0 4.98 0 6.87v13.602c0 1.89.66 3.495 1.983 4.817s2.93 1.984 4.818 1.984h7.935c.944 0 1.747.33 2.409.992.66.66.991 1.464.991 2.409v1.133c0 2.503-.885 4.64-2.656 6.41-1.771 1.771-3.908 2.657-6.412 2.657H6.801c-.614 0-1.145.225-1.594.673-.449.449-.673.98-.673 1.594v4.535c0 .613.224 1.145.673 1.594.45.448.98.673 1.594.673h2.267c2.456 0 4.8-.479 7.032-1.435 2.232-.956 4.162-2.25 5.791-3.879 1.63-1.63 2.923-3.56 3.879-5.791a17.668 17.668 0 0 0 1.434-7.031V6.869c0-1.89-.66-3.496-1.983-4.818C23.899.73 22.293.068 20.404.068zM56.959 2.051C55.637.73 54.03.068 52.142.068H38.54c-1.89 0-3.496.661-4.818 1.983C32.4 3.374 31.74 4.98 31.74 6.87v13.602c0 1.89.661 3.495 1.983 4.817s2.928 1.984 4.818 1.984h7.934c.944 0 1.748.33 2.41.992.66.66.991 1.464.991 2.409v1.133c0 2.503-.886 4.64-2.657 6.41-1.77 1.771-3.907 2.657-6.411 2.657H38.54c-.614 0-1.146.225-1.594.673-.45.449-.674.98-.674 1.594v4.535c0 .613.225 1.145.674 1.594.448.448.98.673 1.594.673h2.267c2.456 0 4.8-.479 7.031-1.435 2.232-.956 4.162-2.25 5.791-3.879 1.63-1.63 2.924-3.56 3.88-5.791a17.669 17.669 0 0 0 1.434-7.031V6.869c0-1.89-.661-3.496-1.984-4.818z"/>
    </g>
</svg>
