<?xml version="1.0" encoding="UTF-8"?>
<svg width="16px" height="17px" viewBox="0 0 16 17" version="1.1" xmlns="http://www.w3.org/2000/svg" xmlns:xlink="http://www.w3.org/1999/xlink">
    <!-- Generator: Sketch 50.2 (55047) - http://www.bohemiancoding.com/sketch -->
    <title>new-file copy@2x</title>
    <desc>Created with Sketch.</desc>
    <defs></defs>
    <g id="Home-Page" stroke="none" stroke-width="1" fill="none" fill-rule="evenodd">
        <g id="Glints-Home---Mobile-Copy" transform="translate(-54.000000, -61.000000)" fill="#FFFFFF" fill-rule="nonzero">
            <g id="mobile-menu">
                <g id="avatar" transform="translate(23.000000, 30.000000)">
                    <g id="new-file-copy" transform="translate(31.000000, 31.000000)">
                        <path d="M11.9922723,1.32608241 L4.7548467,7.35721575 C4.69734585,7.40513269 4.65619775,7.46490211 4.63581385,7.53050268 L4.0146373,9.52412643 C3.97402162,9.65463039 4.01927692,9.79324726 4.13367015,9.88863747 C4.22037779,9.9608298 4.33682462,10 4.45631383,10 C4.49457167,10 4.53305769,9.99600692 4.5710113,9.98783062 L6.96338147,9.4701248 C7.04210288,9.45307499 7.11390289,9.41878522 7.17132768,9.37093165 L14.4086011,3.33992508 C14.4087532,3.33979832 14.4089054,3.33973494 14.4089814,3.33967155 C14.4090575,3.33960817 14.4092096,3.33941802 14.4092857,3.33935464 L15.8662782,2.1252052 C16.0445613,1.9767007 16.0445613,1.73591172 15.8663542,1.58747061 L14.0953127,0.111425909 C14.0096699,0.040057551 13.8936795,0 13.772593,0 C13.6515826,0 13.5355161,0.040057551 13.4499493,0.111425909 L11.9930329,1.32551197 C11.9928807,1.32563873 11.9927286,1.32570212 11.9926526,1.3257655 C11.9925765,1.32582888 11.9924244,1.32601903 11.9922723,1.32608241 Z M6.61388885,8.75992724 L5.09323466,9.08900762 L5.48805864,7.82180728 L12.3152962,2.13249415 L13.4410504,3.07067749 L6.61388885,8.75992724 Z M13.772593,0.918091182 L14.8983472,1.85627452 L14.0864138,2.53287952 L12.9606597,1.59469618 L13.772593,0.918091182 Z" id="Shape"></path>
                        <path d="M15.5476776,3.68993248 C15.2979203,3.68993248 15.0953552,3.85958038 15.0953552,4.06875175 L15.0953552,16.2422983 L0.904644786,16.2422983 L0.904644786,1.75763854 L9.27735844,1.75763854 C9.52711579,1.75763854 9.72968083,1.58799064 9.72968083,1.37881927 C9.72968083,1.1696479 9.52711579,1 9.27735844,1 L0.452322393,1 C0.202565045,1 0,1.1696479 0,1.37881927 L0,16.6211807 C0,16.8303521 0.202565045,17 0.452322393,17 L15.5476776,17 C15.797435,17 16,16.8303521 16,16.6211807 L16,4.06875175 C16,3.85958038 15.7975103,3.68993248 15.5476776,3.68993248 Z" id="Shape"></path>
                    </g>
                </g>
            </g>
        </g>
    </g>
</svg>