<svg xmlns="http://www.w3.org/2000/svg" width="23" height="20" viewBox="0 0 23 20">
    <path fill="#FFF" fill-rule="nonzero" d="M20.91 1.994A5.715 5.715 0 0 0 16.563.037c-2.377 0-3.881 1.42-4.725 2.61a8.648 8.648 0 0 0-.561.91 8.64 8.64 0 0 0-.562-.91C9.872 1.457 8.368.037 5.991.037c-1.69 0-3.233.695-4.345 1.957C.584 3.198 0 4.811 0 6.535c0 1.877.733 3.623 2.306 5.494 1.406 1.672 3.429 3.396 5.771 5.392.873.743 1.776 1.513 2.736 2.353l.03.026a.66.66 0 0 0 .87 0l.029-.026c.96-.84 1.863-1.61 2.736-2.353 2.342-1.996 4.365-3.72 5.771-5.392 1.573-1.871 2.306-3.617 2.306-5.494 0-1.724-.584-3.337-1.646-4.54zm-7.29 14.42a306.08 306.08 0 0 0-2.342 2.012c-.817-.71-1.591-1.37-2.344-2.011-4.584-3.907-7.612-6.487-7.612-9.88 0-1.402.467-2.704 1.315-3.667a4.411 4.411 0 0 1 3.354-1.51c1.812 0 2.983 1.117 3.647 2.053.595.84.905 1.686 1.011 2.011a.66.66 0 0 0 1.257 0 7.835 7.835 0 0 1 1.011-2.011c.664-.936 1.835-2.053 3.647-2.053a4.41 4.41 0 0 1 3.354 1.51c.848.963 1.315 2.265 1.315 3.667 0 3.393-3.028 5.973-7.612 9.88z"/>
</svg>
