<svg width="32" height="32" viewBox="0 0 32 32" xmlns="http://www.w3.org/2000/svg"><path d="M10.376 12.635c0 2.86-1.106 5.342-3.31 8.469a83.37 83.37 0 0 1-1.008 1.393c-.102.14-.068.322.096.43a.46.46 0 0 0 .252.073h19.188c.236 0 .406-.161.406-.333a.286.286 0 0 0-.058-.17 83.369 83.369 0 0 1-1.007-1.393c-2.205-3.127-3.311-5.608-3.311-8.47C21.624 7.743 19.474 5 16 5c-3.474 0-5.624 2.742-5.624 7.635zm-2 0C8.376 6.729 11.3 3 16 3c4.7 0 7.624 3.73 7.624 9.635 0 2.349.958 4.498 2.945 7.316.267.379.376.528.988 1.366.288.394.443.865.443 1.35 0 1.3-1.089 2.333-2.406 2.333H6.406c-.48 0-.951-.14-1.35-.402-1.112-.731-1.395-2.21-.613-3.281.613-.838.721-.987.988-1.366 1.987-2.818 2.945-4.967 2.945-7.316zM16 29c-1.908 0-3.241-1-4-3h8c-.759 2-2.092 3-4 3z"/></svg>