<svg width="32" height="32" viewBox="0 0 32 32" xmlns="http://www.w3.org/2000/svg"><path d="M16 27c4.18 0 7.69-.96 9.999-2.906v-1.03c.02-.821-.324-1.635-.93-2.232-.257-.253-1.168-.696-2.464-1.055C20.834 19.285 18.6 19 16 19s-4.834.285-6.606.777c-1.296.36-2.208.802-2.465 1.055C6.333 21.42 6 22.215 6 23.114v.912C8.764 26.19 11.588 27 16 27zm0-10c6.035 0 9.513 1.463 10.472 2.407.959.943 1.562 2.276 1.527 3.707v1.853C25 28 20.367 29 16 29c-5.041 0-8.5-1-12-4.033v-1.853c0-1.464.568-2.764 1.527-3.707C6.485 18.463 9.965 17 16 17zm0-2a6 6 0 1 1 0-12 6 6 0 0 1 0 12zm0-2a4 4 0 1 0 0-8 4 4 0 0 0 0 8z"/></svg>