<svg xmlns="http://www.w3.org/2000/svg" width="17" height="17" viewBox="0 0 17 17">
    <path fill="#000" fill-rule="nonzero" d="M13.874 10.805c-.993 0-1.868.468-2.44 1.187l-5.306-2.69c.07-.258.12-.523.12-.802 0-.304-.06-.59-.143-.87l5.283-2.677a3.113 3.113 0 0 0 2.487 1.24C15.602 6.194 17 4.809 17 3.098 17 1.387 15.602 0 13.875 0c-1.724 0-3.123 1.387-3.123 3.097 0 .28.05.546.12.803L5.567 6.59a3.12 3.12 0 0 0-2.444-1.188C1.397 5.402 0 6.789 0 8.5c0 1.71 1.397 3.097 3.123 3.097a3.12 3.12 0 0 0 2.49-1.243l5.28 2.677a3.036 3.036 0 0 0-.143.872c0 1.71 1.4 3.097 3.123 3.097 1.728 0 3.125-1.387 3.125-3.097.001-1.713-1.396-3.098-3.124-3.098z"/>
</svg>
