<svg width="32" height="32" viewBox="0 0 32 32" xmlns="http://www.w3.org/2000/svg"><path d="M27.568 9.063l-.995-.323.211-.624a6.566 6.566 0 0 1-1.628.364l-.83.078-.64-.534A4.412 4.412 0 0 0 20.837 7c-2.419 0-4.384 1.924-4.402 4.279l-.017 2.223-2.209-.251c-2.21-.252-4.42-1.204-6.57-2.75a20.532 20.532 0 0 1-2.32-1.95c-.342.995-.272 2.001.186 3.014l.68 1.503-.308.113a1 1 0 0 0-.61 1.243c.35 1.1.728 1.84 1.135 2.22l1.011.943-.236.577a1 1 0 0 0 .06.881c.577.994 1.11 1.577 1.6 1.75l3.88 2.076L8.6 24.428c-.73.276-1.52.457-2.36.55 1.491.56 3.185.837 5.052.837.727 0 1.435-.044 2.107-.127.364-.045.386-.049.714-.107 4.709-1.084 7.888-3.503 9.699-7.143a14.73 14.73 0 0 0 1.545-6.357l.009-.865.637-.586a22.458 22.458 0 0 0 1.566-1.567zm1.549-1.6c.131.047.23.096.324.16.455.312.659.863.512 1.38-.16.582-.915 1.553-2.597 3.1a16.754 16.754 0 0 1-1.754 7.226c-2.003 4.027-5.573 6.943-11.041 8.201-.438.08-.501.091-.918.143-.72.089-1.51.142-2.352.142-3.233 0-6.294-.757-8.777-2.599a1.253 1.253 0 0 1-.407-1.517c.239-.537.82-.846 1.282-.751 2.074.035 3.575-.096 4.503-.39-1.928-1.372-2.893-2.574-2.894-3.605 0-.29-.07-.58.04-.846-1.218-1.135-1.923-2.698-1.89-4.715.009-.404.21-.774.534-1.003-.824-1.82-.813-3.816.323-5.73a1.296 1.296 0 0 1 2.096-.173c.08.095.37.403.722.74a18.543 18.543 0 0 0 1.984 1.65c1.187.855 2.409 1.517 3.642 1.935-.006.097.656.247 1.985.453l.15-1.31C15.214 7.123 17.778 5 20.835 5c1.529 0 2.978.524 4.133 1.489a4.612 4.612 0 0 0 2.243-.836c.38-.274.88-.32 1.297-.123.422.193.705.6.738 1.058.016.24-.016.511-.109.808l-.021.068z"/></svg>