<svg width="32" height="32" viewBox="0 0 32 32" xmlns="http://www.w3.org/2000/svg"><path d="M29.842 12.297a45.5 45.5 0 0 1 .138 2.544A51.702 51.702 0 0 1 30 16c0 .06 0 .17-.002.323-.004.253-.01.534-.018.836a45.5 45.5 0 0 1-.138 2.545c-.096 1.12-.231 2.049-.42 2.746a4.238 4.238 0 0 1-3.008 2.98c-.877.232-2.622.377-5.07.47a148.152 148.152 0 0 1-4.883.098 93.559 93.559 0 0 1-2.132-.01 148.152 148.152 0 0 1-3.673-.089c-2.448-.092-4.193-.237-5.07-.47a4.239 4.239 0 0 1-3.008-2.978c-.189-.698-.324-1.628-.42-2.747a45.5 45.5 0 0 1-.138-2.545A51.701 51.701 0 0 1 2 16c0-.06 0-.17.002-.323.004-.253.01-.534.018-.836a45.5 45.5 0 0 1 .138-2.544c.096-1.12.231-2.05.42-2.747a4.238 4.238 0 0 1 3.008-2.98c.876-.232 2.622-.377 5.07-.47a148.112 148.112 0 0 1 4.883-.098 93.532 93.532 0 0 1 2.132.01c1.251.016 2.503.045 3.673.089 2.448.092 4.194.237 5.07.47a4.238 4.238 0 0 1 3.008 2.979c.189.697.324 1.627.42 2.747zm-3.94-3.793c-.676-.18-2.352-.318-4.634-.405a146.175 146.175 0 0 0-4.817-.097 91.753 91.753 0 0 0-2.097.01c-1.235.016-2.47.044-3.622.087-2.282.087-3.958.226-4.634.405a2.239 2.239 0 0 0-1.59 1.568c-.15.558-.27 1.385-.357 2.395-.066.77-.108 1.6-.132 2.43A49.711 49.711 0 0 0 4 16a49.71 49.71 0 0 0 .019 1.102c.024.831.066 1.661.132 2.432.086 1.01.206 1.836.358 2.394a2.24 2.24 0 0 0 1.59 1.568c.675.18 2.351.318 4.633.405a146.215 146.215 0 0 0 4.817.097 91.783 91.783 0 0 0 2.097-.01c1.235-.016 2.47-.044 3.622-.087 2.282-.087 3.958-.226 4.634-.405a2.239 2.239 0 0 0 1.59-1.568c.15-.558.27-1.384.357-2.394A49.71 49.71 0 0 0 28 16c.001-.053 0-.155-.001-.299a49.71 49.71 0 0 0-.017-.803c-.024-.83-.066-1.66-.132-2.431-.086-1.01-.206-1.837-.358-2.395a2.239 2.239 0 0 0-1.59-1.568zM13 20v-8l7 4-7 4z"/></svg>