<svg width="32" height="32" viewBox="0 0 32 32" xmlns="http://www.w3.org/2000/svg"><path d="M5.6 4A1.6 1.6 0 0 0 4 5.6v20.8A1.6 1.6 0 0 0 5.6 28h20.8a1.6 1.6 0 0 0 1.6-1.6V5.6A1.6 1.6 0 0 0 26.4 4H5.6zm0-2h20.8A3.6 3.6 0 0 1 30 5.6v20.8a3.6 3.6 0 0 1-3.6 3.6H5.6A3.6 3.6 0 0 1 2 26.4V5.6A3.6 3.6 0 0 1 5.6 2zM8 24h4V13.333H8V24zm3.447-12.575c.369-.384.553-.86.553-1.426-.01-.577-.195-1.055-.554-1.433-.359-.377-.835-.566-1.43-.566s-1.08.189-1.454.566C8.187 8.944 8 9.422 8 10c0 .568.182 1.042.546 1.426.364.383.839.575 1.424.575h.014c.606 0 1.093-.192 1.463-.575zM24 24v-5.98c0-1.542-.369-2.709-1.106-3.5-.737-.792-1.713-1.187-2.925-1.187-1.355 0-2.4.572-3.136 1.713v-1.472h-3.5c.03.66.03 4.136 0 10.426h3.5v-5.829c0-.38.035-.66.106-.842.152-.35.379-.648.682-.893.303-.246.677-.368 1.122-.368 1.17 0 1.756.786 1.756 2.358V24H24z"/></svg>