<svg width="32" height="32" viewBox="0 0 32 32" xmlns="http://www.w3.org/2000/svg"><path d="M4 17.223c0-.135.089-.277.269-.398l.519-.35c.194-.131.292-.304.292-.475 0-.173-.098-.345-.292-.475l-.52-.35c-.18-.122-.268-.264-.268-.398 0-.156.119-.302.352-.396l.581-.235c.26-.104.396-.294.396-.501a.624.624 0 0 0-.196-.429l-.436-.45c-.126-.13-.186-.26-.186-.377 0-.184.151-.331.435-.382l.617-.108c.32-.057.502-.262.502-.514a.675.675 0 0 0-.113-.355l-.333-.53a.642.642 0 0 1-.11-.332c0-.224.186-.37.513-.36l.627.02c.373.014.61-.203.61-.512a.738.738 0 0 0-.05-.255l-.213-.588a.739.739 0 0 1-.049-.25c0-.283.227-.432.587-.343l.609.15c.416.103.719-.127.719-.52a.867.867 0 0 0-.008-.115l-.088-.62a.884.884 0 0 1-.009-.122c0-.375.277-.532.658-.347l.565.274c.422.203.795-.01.827-.475l.045-.623c.034-.466.364-.612.734-.325l.496.383c.37.287.778.154.908-.293l.173-.6c.131-.449.484-.524.786-.166l.404.477c.302.358.73.313.95-.099l.295-.55c.221-.412.583-.412.804 0l.295.55c.22.412.648.457.95.1l.405-.478c.301-.358.654-.283.785.166l.173.6c.13.447.539.58.908.293l.496-.383c.37-.287.7-.14.734.325l.045.623c.033.464.405.678.827.475l.565-.274c.381-.185.658-.028.658.347a.884.884 0 0 1-.01.122l-.087.62a.817.817 0 0 0-.008.116c0 .392.303.622.719.519l.61-.15c.36-.089.586.06.586.342 0 .075-.016.16-.05.251l-.213.588a.737.737 0 0 0-.048.255c0 .31.237.526.61.513l.626-.02c.327-.012.513.135.513.36a.642.642 0 0 1-.11.331l-.333.53a.675.675 0 0 0-.113.355c0 .252.182.457.502.514l.617.108c.284.05.435.198.435.382 0 .117-.06.247-.186.377l-.436.45a.624.624 0 0 0-.196.429c0 .207.137.397.396.501l.581.235c.233.094.352.24.352.396 0 .134-.089.276-.269.398l-.519.35c-.194.13-.292.302-.292.475 0 .171.098.344.292.474l.52.351c.18.121.268.263.268.398 0 .155-.119.302-.352.396l-.581.234c-.26.104-.396.294-.396.501 0 .142.064.292.196.429l.436.45c.126.13.186.26.186.377 0 .184-.151.332-.435.382l-.617.11c-.32.056-.502.26-.502.512 0 .113.036.234.113.356l.333.53c.075.12.11.233.11.331 0 .224-.186.371-.513.36l-.626-.02c-.373-.013-.61.203-.61.513 0 .08.015.166.048.256l.214.586a.74.74 0 0 1 .049.25c0 .284-.226.432-.587.344l-.609-.151c-.416-.102-.719.128-.719.52a.93.93 0 0 0 .008.116l.088.619a.885.885 0 0 1 .009.122c0 .375-.277.532-.658.346l-.565-.273c-.422-.203-.794.011-.827.477l-.045.622c-.034.466-.364.611-.734.324l-.496-.383c-.37-.287-.778-.154-.908.293l-.173.6c-.131.449-.484.523-.785.166l-.405-.478c-.302-.357-.73-.311-.95.1l-.295.55c-.221.413-.583.413-.804 0l-.295-.55c-.22-.411-.648-.457-.95-.1l-.404.478c-.302.357-.655.283-.786-.166l-.173-.6c-.13-.447-.539-.58-.908-.293l-.496.383c-.37.287-.7.142-.734-.324l-.045-.622c-.032-.466-.405-.68-.827-.477l-.565.273c-.381.186-.658.029-.658-.346 0-.039.003-.08.01-.122l.087-.619a.875.875 0 0 0 .008-.116c0-.393-.303-.622-.719-.52l-.61.151c-.359.088-.586-.06-.586-.344 0-.075.016-.158.05-.25l.213-.586a.742.742 0 0 0 .048-.256c0-.31-.236-.526-.609-.514l-.627.022c-.327.01-.513-.137-.513-.36 0-.099.035-.212.11-.332l.333-.53a.678.678 0 0 0 .113-.356c0-.252-.182-.456-.502-.512l-.617-.11c-.284-.05-.435-.198-.435-.382 0-.116.06-.247.186-.377l.436-.45a.624.624 0 0 0 .196-.429c0-.207-.137-.397-.396-.501l-.581-.234c-.233-.094-.352-.24-.352-.396zM21.2 11.4l-5.432 7.243-5.213-3.475a1 1 0 1 0-1.11 1.664l6 4A1 1 0 0 0 16.8 20.6l6-8a1 1 0 0 0-1.6-1.2z" fill-rule="evenodd"/></svg>